<svg width="578" height="530" viewBox="0 0 329 940" fill="none" xmlns="http://www.w3.org/2000/svg">
<g filter="url(#filter0_f_353_112)">
<path d="M-265.229 229.692C-231.173 211.479 -149.691 199.923 -96.2109 299.402C-96.2109 292.62 -66.6118 266.996 51.785 218.764C199.781 158.474 45.4784 310.33 114.01 401.896C168.836 475.149 -15.3457 556.264 -114.29 587.666C-6.99286 666.344 -170.209 718.671 -265.229 735C-305.872 717.792 -389.596 676.217 -399.35 647.579C-411.543 611.782 -399.35 572.593 -372.021 533.027C-350.158 501.375 -381.131 478.892 -399.35 471.607C-615.878 370.62 -108.404 401.896 -265.229 325.403C-390.689 264.208 -317.504 236.098 -265.229 229.692Z" fill="url(#paint0_linear_353_112)"/>
</g>
<defs>
<filter id="filter0_f_353_112" x="-659" y="0" width="988" height="940" filterUnits="userSpaceOnUse" color-interpolation-filters="sRGB">
<feFlood flood-opacity="0" result="BackgroundImageFix"/>
<feBlend mode="normal" in="SourceGraphic" in2="BackgroundImageFix" result="shape"/>
<feGaussianBlur stdDeviation="102.5" result="effect1_foregroundBlur_353_112"/>
</filter>
<linearGradient id="paint0_linear_353_112" x1="124" y1="470" x2="-454" y2="470" gradientUnits="userSpaceOnUse">
<stop stop-color="#9F67E8"/>
<stop offset="0.22" stop-color="#264F77"/>
<stop offset="0.47" stop-color="#3771AA"/>
<stop offset="0.735" stop-color="#0284C7"/>
<stop offset="0.9999" stop-color="#FFB900"/>
</linearGradient>
</defs>
</svg>
