<svg width="670" height="650" viewBox="0 0 670 650" fill="none" xmlns="http://www.w3.org/2000/svg">
<g clip-path="url(#clip0_34_5966)">
<path d="M576.11 308.82C569.61 315.93 562.07 324.09 553.61 333.15C554.2 335.77 554.74 338.41 555.25 341.03C561.02 371.38 560.48 398 553.6 422.42C548.27 441.33 538.93 459.23 525.79 475.77C536.57 486.7 546.27 499.2 554.72 513.03L602.28 477.41L602.46 477.29C603.94 476.27 607.06 474.56 611.26 474.56C612.14 474.56 613.02 474.64 613.89 474.79C618.11 475.55 621.68 477.95 624.26 481.73C625.83 484.01 627.62 486.84 629.55 490.13L629.65 490.3L635.45 500.48L544.49 553.08L538.75 543.06C537.66 541.15 536.51 539.19 535.09 536.87C523.03 517.12 515.53 504.83 504.9 497.97C498.85 503.42 492.42 508.54 485.7 513.23C458.35 532.33 424.57 546.44 382.44 556.35C358.78 561.91 336.44 564.73 316.06 564.73C312.32 564.73 308.62 564.63 304.99 564.44C304.73 565 304.48 565.56 304.26 566.12C299.27 578.4 300.88 592.96 303.55 617.08C303.78 619.23 304.07 621.56 304.44 624.21L306.05 635.64L201.84 649.7L200.3 638.31C200.19 637.54 199.54 632.66 199.27 627.98C198.96 622.19 201.24 618.38 203.21 616.2C207.23 611.77 212.41 611.21 213.9 611.15H214.19L273.44 610.22C271.6 593.63 271.68 577.35 273.69 561.67C273.75 561.14 273.82 560.61 273.9 560.09C257.33 556.13 242.59 549.62 229.95 540.67C222.26 535.23 215.02 528.58 208.34 520.83L145.06 558.51L127.59 568.92L111.49 569.39L69.55 570.61H69.41C65.76 570.61 62.31 568.84 60.18 565.88C58.06 562.92 57.48 559.09 58.64 555.64L75.14 506.87L10.02 499.24C6.02999 498.77 2.55999 496.2 0.949988 492.53C-0.660012 488.87 -0.210011 484.58 2.13999 481.33L42.11 425.59L13.27 413.49C8.96999 411.69 6.23999 407.5 6.31999 402.83C6.39999 398.15 9.27999 394.07 13.66 392.41L34.78 384.49L62.69 374L84.28 365.9L141.42 344.43C138.1 326.88 134.99 307.72 131.53 283.66C126.85 251.06 124.49 218.33 122.96 193.46C122.76 190.04 122.56 186.7 122.38 183.36C122.09 178.27 121.81 172.85 121.51 166.34C121.23 160.16 120.97 153.77 120.72 146.82C120.55 142.2 119.98 122 119.69 109.97C119.59 105.91 121.09 102.08 123.91 99.19C126.72 96.31 130.64 94.66 134.65 94.66C134.85 94.66 135.06 94.66 135.27 94.66C138.12 94.78 140.89 95.72 143.25 97.39L188.78 129.55L210.16 144.65C215.69 123.75 234.78 51.67 234.78 51.67C236.51 45.12 242.45 40.54 249.24 40.54C249.43 40.54 249.62 40.55 249.81 40.55C253 40.67 256.02 41.79 258.53 43.79L258.62 43.86C262.8 47.19 266.99 50.53 271.17 53.86L324.98 96.69L325.81 94.77C331.8 80.94 337.78 67.11 343.77 53.28L362.94 8.99999C365.26 3.64999 370.32 0.19999 376.15 -9.76585e-06C376.32 -9.76585e-06 376.49 -0.0100098 376.67 -0.0100098C382.27 -0.0100098 387.35 3.08999 389.93 8.06999C396.26 20.32 403.28 33.2 411.37 47.45C413.55 51.28 415.74 55.1 417.94 58.91L419.31 61.29C428.51 77.13 438.07 93.09 447.34 108.55C457.34 125.24 467.62 142.39 477.56 159.62C477.64 159.5 477.72 159.37 477.79 159.25C479.69 156.26 481.44 153.13 482.99 149.97C484.18 147.55 485.27 145.07 486.23 142.57C486.9 140.86 487.52 139.09 488.1 137.28C490.81 128.78 491.5 122.39 492.23 115.64C493.02 108.36 493.83 100.85 497.12 91.33L497.16 91.21C497.32 90.76 497.48 90.31 497.66 89.83C498.47 87.58 499.4 85.31 500.44 83.08C501.24 81.34 502.15 79.52 503.15 77.68C508.8 67.29 516.72 57.51 526.69 48.59C528.32 47.13 530.34 46.21 532.51 45.93C532.93 45.87 533.43 45.84 533.91 45.84C539.81 45.84 544.57 50.43 544.77 56.3C545.05 63.58 545.91 70.95 547.34 78.19C547.4 78.51 547.46 78.81 547.52 79.12C547.52 79.12 548.22 82.36 548.24 82.45C548.71 84.49 549.23 86.55 549.82 88.68C551.03 93.01 552.45 97.31 554.07 101.52C559.17 98.49 564.03 95.08 568.59 91.33C570.31 89.91 571.99 88.45 573.57 86.99C574.47 86.16 575.33 85.35 576.15 84.54C577.77 82.96 579.34 81.33 580.82 79.72C585.91 74.14 590.5 68.01 594.44 61.52C596.19 58.66 599.07 56.8 602.35 56.39C602.78 56.33 603.25 56.3 603.72 56.3C608.65 56.3 612.97 59.63 614.22 64.39C617.2 75.82 619.49 87.58 621.02 99.36C621.37 102.02 621.7 104.85 622 107.77L625.05 138.05C625.05 143.97 623.23 148.1 622.86 153.99C622.86 154.08 622.85 154.16 622.85 154.24C622.92 154.21 622.99 154.17 623.07 154.13C626.41 152.41 629.68 150.43 632.8 148.22L632.89 148.16L633.08 148.02L633.27 147.88L633.58 147.65C635.85 146.01 638.07 144.21 640.19 142.29C643.89 138.95 647.3 135.25 650.33 131.3C652.37 128.6 655.52 127.03 658.94 127.03H659.4L659.93 127.07C662.81 127.32 665.56 128.78 667.41 131.08C669.25 133.36 670.09 136.34 669.71 139.27C668.4 149.19 666.53 159.03 664.15 168.53C664.15 168.53 655.25 204.01 655.25 204.02C639.94 241.84 608.68 272.88 581.69 302.66L576.11 308.81V308.82Z" fill="#EFEFEF"/>
<path d="M303.03 548.88C300.51 552.54 297.39 557.1 295 562.97C289.06 577.59 290.77 593.1 293.61 618.8C293.88 621.26 294.2 623.75 294.54 626.2L294.75 627.69L210.41 639.07L210.21 637.59C210.18 637.39 209.52 632.55 209.26 628.03C209.16 626.17 209.62 624.65 210.64 623.52C212.11 621.9 214.13 621.77 214.35 621.76L284.87 620.66C281.69 601.06 281.27 581.86 283.61 563.56C286.62 540.01 291.93 535.43 296.22 534.06C297.28 533.73 298.46 533.55 299.64 533.55C302.47 533.55 305.34 534.54 306.78 536.73C309.02 540.15 306.51 543.81 303.03 548.88Z" fill="black"/>
<path d="M621.85 497.42L548.18 540.02L547.43 538.71C546.18 536.51 544.93 534.41 543.64 532.29C530.16 510.22 522.02 496.91 508.38 488.99C502.9 485.8 497.64 484.11 493.41 482.75C487.56 480.87 483.33 479.51 483.01 475.44C482.72 471.72 486.2 468.16 489.73 466.87C490.66 466.53 491.73 466.28 493 466.28C497.51 466.28 504.65 469.39 517.75 482.48C530.79 495.52 542.21 510.97 551.7 528.41L608.11 486.16C608.33 486.01 610 484.88 612.15 485.26C613.65 485.53 614.95 486.44 616 487.98C618.57 491.71 621 495.95 621.11 496.12L621.85 497.42Z" fill="black"/>
<path d="M139.95 550.54L124.71 559.62L111.21 560.01L97.52 560.41L69.45 561.23C68.51 561.25 67.83 560.34 68.13 559.45L75.36 538.08L78.94 527.5L88.58 498.99L52.35 494.75L39.63 493.26L11.19 489.93C10.17 489.81 9.65 488.64 10.25 487.81L24.14 468.44L30.44 459.66L57.56 421.84L41.25 415L30.5 410.49L17.15 404.89C16.03 404.42 16.06 402.82 17.2 402.39L28.71 398.07L38.3 394.47L66.22 383.98C67.18 406.75 71.21 429.12 78.25 450.66C83.74 467.45 90.68 482.57 98.36 496.05C98.78 496.81 99.22 497.56 99.65 498.31C112.26 519.94 126.72 537.28 139.95 550.54Z" fill="#F2DCC2"/>
<path d="M254.32 482.43L235.11 493.87H235.1L210.67 508.43L159.33 539C149.67 529.76 139.06 518.05 129.03 503.77C146.77 505.98 164.64 506.27 182.43 504.63C190.44 503.89 198.18 502.78 205.63 501.37C201.32 494.97 197.44 488.21 193.92 481.26C189.52 481.94 185.02 482.5 180.42 482.92C158.26 484.97 135.96 483.71 113.97 479.21C110.08 471.87 106.45 464.03 103.2 455.69C124.18 459.17 145.39 459.94 166.48 457.99C171.98 457.48 177.36 456.8 182.6 455.96C179.83 449.06 177.25 442.1 174.84 435.08C171.45 435.56 167.99 435.96 164.48 436.28C141.46 438.41 118.27 436.97 95.45 432.02C93.49 424.66 91.9 417.2 90.69 409.67C111.57 413.09 132.67 413.85 153.65 411.92C158.19 411.5 162.64 410.96 167 410.32C164.95 403.29 163.04 396.22 161.26 389.12C158.11 389.54 154.9 389.91 151.65 390.21C130.5 392.16 109.22 391.11 88.21 387.09C87.98 383.37 87.85 379.63 87.8 375.88L152.85 351.44L188.96 337.88L207.05 377.9L216.06 397.82L226.73 421.4L235.72 441.29L247.02 466.27L254.32 482.43Z" fill="#F2DCC2"/>
<path d="M52.35 494.75L39.63 493.26L11.19 489.93C10.17 489.81 9.65 488.64 10.25 487.81L24.14 468.44L30.44 459.66L52.35 494.75Z" fill="#F2A03C"/>
<path d="M39.63 493.26L11.19 489.93C10.17 489.81 9.65 488.64 10.25 487.81L24.14 468.44L39.63 493.26Z" fill="#1F1826"/>
<path d="M111.21 560.01L97.52 560.41L69.45 561.23C68.51 561.25 67.83 560.34 68.13 559.45L75.36 538.08L78.94 527.5L111.21 560.01Z" fill="#F2A03C"/>
<path d="M97.52 560.41L69.45 561.23C68.51 561.25 67.83 560.34 68.13 559.45L75.36 538.08L97.52 560.41Z" fill="#1F1826"/>
<path d="M41.25 415L30.5 410.49L17.15 404.89C16.03 404.42 16.06 402.82 17.2 402.39L28.71 398.07L38.3 394.47L41.25 415Z" fill="#F2A03C"/>
<path d="M30.5 410.49L17.15 404.89C16.03 404.42 16.06 402.82 17.2 402.39L28.71 398.07L30.5 410.49Z" fill="#1F1826"/>
<path d="M563.45 264.35C557.39 284.96 548.67 302.67 539.13 317.6C540.41 321.99 541.6 326.41 542.67 330.85C538 335.84 533.64 340.48 529.64 344.71C523.74 350.97 518.64 356.34 514.55 360.63C514.13 361.07 513.4 360.93 513.16 360.37C512.2 358.12 511.25 355.87 510.29 353.62C507.17 346.27 504.05 338.91 500.93 331.56C500.86 331.41 500.8 331.25 500.73 331.1C497.75 324.07 494.77 317.04 491.78 310.01C488.11 301.37 484.45 292.74 480.79 284.1C477.48 276.33 474.18 268.55 470.89 260.78C465.11 247.18 459.34 233.59 453.57 219.99C453.47 219.75 453.48 219.47 453.61 219.24C461.21 205.67 468.81 192.1 476.41 178.54C476.43 178.51 476.44 178.5 476.46 178.47C476.46 178.47 476.49 178.42 476.5 178.4C479.49 174.9 482.89 170.52 486.24 165.25C488.67 165.74 491.09 166.28 493.49 166.85C493.47 179.19 492.37 191.43 490.2 203.46V203.48C495.04 212.53 499.74 221.64 504.26 230.84C509.81 211.94 512.88 192.46 513.39 172.68C519.93 174.95 526.34 177.54 532.6 180.45C533.19 202.41 530.4 224.07 524.26 244.92C522.55 250.74 520.62 256.33 518.53 261.69C522.2 270.19 525.69 278.76 528.97 287.44C534.54 276.25 539.5 263.96 543.45 250.56C549.13 231.26 552.21 211.33 552.63 191.11C559.53 195.28 565.93 199.72 571.87 204.31C572 224.76 569.17 244.91 563.45 264.35Z" fill="#F2DCC2"/>
<path d="M614.54 248.55C610.89 253.29 606.72 258.55 601.73 264.85C597.88 269.7 591.01 278.2 571.7 299.43C575.84 290.3 579.55 280.49 582.64 270C587.3 254.15 590.21 237.88 591.33 221.38C600.55 230.52 608.23 239.81 614.54 248.55Z" fill="#F2DCC2"/>
<path d="M649.83 182.71C644.28 199.66 637.73 212.89 632.16 222.61C630.37 225.74 628.6 228.64 626.76 231.48C617.53 219.4 605.94 206.63 591.62 194.55C590.94 193.98 590.25 193.4 589.55 192.83C579.75 184.77 568.7 177.05 556.28 170.1C537.3 159.48 516.93 151.67 495.57 146.8C496.31 144.91 497 142.95 497.64 140.93C503.67 122.02 500.75 112.1 506.58 95.23C506.73 94.8 506.88 94.37 507.05 93.92L513.42 92.97C519.19 92.12 525.17 91.68 531.17 91.68C533.27 91.68 535.31 91.73 537.25 91.83L540.19 91.98C542.74 101.14 545.85 108.97 548.82 115.34C549.02 115.77 549.53 115.95 549.96 115.74C556.85 112.37 565.71 107.28 574.95 99.69L579.2 101.51C588.69 105.58 597.68 110.89 605.91 117.29L613.06 122.85C613.64 134.1 613.48 144.54 612.89 154C612.56 159.26 612.09 164.22 611.55 168.84C611.48 169.45 612.06 169.92 612.65 169.74C616.79 168.48 621.97 166.57 627.64 163.66C631.14 161.86 634.83 159.67 638.58 157.02C638.72 156.92 638.85 156.83 638.98 156.73C641.29 161.13 643.35 165.69 645.1 170.29L648.39 178.93L649.83 182.71Z" fill="#F2DCC2"/>
<path d="M538.49 85.27C539.02 87.58 539.59 89.81 540.19 91.98L537.25 91.83C535.31 91.73 533.27 91.68 531.17 91.68C525.17 91.68 519.19 92.12 513.42 92.97L507.05 93.92C507.73 92.03 508.55 90.01 509.52 87.91C510.24 86.35 511.05 84.74 511.95 83.08C516.32 75.04 522.98 65.96 533.36 56.68C533.89 56.21 534.76 56.57 534.78 57.28C535.04 64.07 535.81 72 537.53 80.75C537.6 81.11 537.67 81.47 537.75 81.84C537.98 82.97 538.23 84.11 538.49 85.27Z" fill="#F2DCC2"/>
<path d="M612.79 118.21C612.9 119.77 612.99 121.32 613.06 122.85L605.91 117.29C597.68 110.89 588.69 105.58 579.2 101.51L574.95 99.69C576.74 98.21 578.55 96.64 580.36 94.97C581.32 94.09 582.25 93.2 583.15 92.32C584.94 90.57 586.63 88.82 588.21 87.09C594.75 79.93 599.55 73.02 603 67.34C603.39 66.7 604.36 66.84 604.55 67.56C607.09 77.3 609.46 88.61 611.11 101.28C611.46 103.93 611.77 106.63 612.05 109.4C612.34 112.28 612.59 115.21 612.79 118.21Z" fill="#F2DCC2"/>
<path d="M659.8 138.62C658.46 148.76 656.61 158.12 654.45 166.73C653.51 170.49 652.5 174.11 651.45 177.58C651.16 178.53 650.87 179.47 650.58 180.39C650.33 181.17 650.08 181.95 649.83 182.71L648.39 178.93L645.1 170.29C643.35 165.69 641.29 161.13 638.98 156.73C639.14 156.62 639.3 156.5 639.46 156.38C642.19 154.4 644.66 152.37 646.9 150.35C651.75 145.97 655.49 141.65 658.28 138C658.81 137.3 659.91 137.76 659.8 138.62Z" fill="#F2DCC2"/>
<path d="M540.19 91.98L537.25 91.83C535.31 91.73 533.27 91.68 531.17 91.68C525.17 91.68 519.19 92.12 513.42 92.97L507.05 93.92C507.73 92.03 508.55 90.01 509.52 87.91C510.24 86.35 511.05 84.74 511.95 83.08C516.32 75.04 522.98 65.96 533.36 56.68C533.89 56.21 534.76 56.57 534.78 57.28C535.04 64.07 535.81 72 537.53 80.75C537.6 81.11 537.67 81.47 537.75 81.84C537.98 82.97 538.23 84.11 538.49 85.27C539.02 87.58 539.59 89.81 540.19 91.98Z" fill="#F2A03C"/>
<path d="M537.75 81.84C535.57 81.73 533.38 81.68 531.17 81.68C524.64 81.68 518.22 82.15 511.95 83.08C516.32 75.04 522.98 65.96 533.36 56.68C533.89 56.21 534.76 56.57 534.78 57.28C535.04 64.07 535.81 72 537.53 80.75C537.6 81.11 537.67 81.47 537.75 81.84Z" fill="#1F1826"/>
<path d="M613.06 122.85L605.91 117.29C597.68 110.89 588.69 105.58 579.2 101.51L574.95 99.69C576.74 98.21 578.55 96.64 580.36 94.97C581.32 94.09 582.25 93.2 583.15 92.32C584.94 90.57 586.63 88.82 588.21 87.09C594.75 79.93 599.55 73.02 603 67.34C603.39 66.7 604.36 66.84 604.55 67.56C607.09 77.3 609.46 88.61 611.11 101.28C611.46 103.93 611.77 106.63 612.05 109.4C612.34 112.28 612.59 115.21 612.79 118.21C612.9 119.77 612.99 121.32 613.06 122.85Z" fill="#F2A03C"/>
<path d="M612.05 109.4C603.24 102.55 593.54 96.78 583.15 92.32C584.94 90.57 586.63 88.82 588.21 87.09C594.75 79.93 599.55 73.02 603 67.34C603.39 66.7 604.36 66.84 604.55 67.56C607.09 77.3 609.46 88.61 611.11 101.28C611.46 103.93 611.77 106.63 612.05 109.4Z" fill="#1F1826"/>
<path d="M659.8 138.62C658.46 148.76 656.61 158.12 654.45 166.73C653.51 170.49 652.5 174.11 651.45 177.58C651.16 178.53 650.87 179.47 650.58 180.39C650.33 181.17 650.08 181.95 649.83 182.71L648.39 178.93L645.1 170.29C643.35 165.69 641.29 161.13 638.98 156.73C639.14 156.62 639.3 156.5 639.46 156.38C642.19 154.4 644.66 152.37 646.9 150.35C651.75 145.97 655.49 141.65 658.28 138C658.81 137.3 659.91 137.76 659.8 138.62Z" fill="#F2A03C"/>
<path d="M659.8 138.62C658.46 148.76 656.61 158.12 654.45 166.73C652.3 161.08 649.77 155.61 646.9 150.35C651.75 145.97 655.49 141.65 658.28 138C658.81 137.3 659.91 137.76 659.8 138.62Z" fill="#1F1826"/>
<path d="M626.76 231.48C623.17 237.04 619.31 242.34 614.54 248.55C608.23 239.81 600.55 230.52 591.33 221.38C590.21 237.88 587.3 254.15 582.64 270C579.55 280.49 575.84 290.3 571.7 299.43C571.7 299.43 571.7 299.44 571.69 299.44C564.36 307.51 555.23 317.41 543.79 329.65C543.41 330.05 543.04 330.45 542.67 330.85C541.6 326.41 540.41 321.99 539.13 317.6C548.67 302.67 557.39 284.96 563.45 264.35C569.17 244.91 572 224.76 571.87 204.31C565.93 199.72 559.53 195.28 552.63 191.11C552.21 211.33 549.13 231.26 543.45 250.56C539.5 263.96 534.54 276.25 528.97 287.44C525.69 278.76 522.2 270.19 518.53 261.69C520.62 256.33 522.55 250.74 524.26 244.92C530.4 224.07 533.19 202.41 532.6 180.45C526.34 177.54 519.93 174.95 513.39 172.68C512.88 192.46 509.81 211.94 504.26 230.84C499.74 221.64 495.04 212.53 490.2 203.48V203.46C492.37 191.43 493.47 179.19 493.49 166.85C491.09 166.28 488.67 165.74 486.24 165.25C488.21 162.14 490.15 158.73 491.98 155C493.25 152.42 494.46 149.68 495.57 146.8C516.93 151.67 537.3 159.48 556.28 170.1C568.7 177.05 579.75 184.77 589.55 192.83C590.25 193.4 590.94 193.98 591.62 194.55C605.94 206.63 617.53 219.4 626.76 231.48Z" fill="#1F1826"/>
<path d="M504.26 230.84C504.26 230.84 504.25 230.86 504.25 230.87C498.28 251.15 489.98 268.87 480.79 284.1C467.56 306.02 452.5 322.78 439.93 334.59L426.24 320.01C440.13 306.96 457.34 287.32 470.89 260.78C476.36 250.06 481.24 238.21 485.06 225.22C487.17 218.06 488.88 210.81 490.2 203.48C495.04 212.53 499.74 221.64 504.26 230.84Z" fill="#1F1826"/>
<path d="M528.97 287.44C520.46 304.53 510.55 319.06 500.73 331.1C493.26 340.26 485.84 347.97 479.12 354.28L465.43 339.71C473.55 332.08 482.8 322.2 491.78 310.01C501.62 296.69 511.13 280.61 518.53 261.69C522.2 270.19 525.69 278.76 528.97 287.44Z" fill="#1F1826"/>
<path d="M545.43 343.53C536.14 355.83 526.68 365.87 518.32 373.72L504.63 359.14C506.46 357.42 508.36 355.58 510.29 353.62C519.53 344.28 529.73 332.3 539.13 317.6C540.41 321.99 541.6 326.41 542.67 330.85C543.7 335.06 544.62 339.29 545.43 343.53Z" fill="#1F1826"/>
<path d="M205.63 501.37C198.18 502.78 190.44 503.89 182.43 504.63C164.64 506.27 146.77 505.98 129.03 503.77C139.06 518.05 149.67 529.76 159.33 539L139.95 550.54C126.72 537.28 112.26 519.94 99.65 498.31C99.22 497.56 98.78 496.81 98.36 496.05C90.68 482.57 83.74 467.45 78.25 450.66C71.21 429.12 67.18 406.75 66.22 383.98L87.8 375.88C87.85 379.63 87.98 383.37 88.21 387.09C109.22 391.11 130.5 392.16 151.65 390.21C154.9 389.91 158.11 389.54 161.26 389.12C163.04 396.22 164.95 403.29 167 410.32C162.64 410.96 158.19 411.5 153.65 411.92C132.67 413.85 111.57 413.09 90.69 409.67C91.9 417.2 93.49 424.66 95.45 432.02C118.27 436.97 141.46 438.41 164.48 436.28C167.99 435.96 171.45 435.56 174.84 435.08C177.25 442.1 179.83 449.06 182.6 455.96C177.36 456.8 171.98 457.48 166.48 457.99C145.39 459.94 124.18 459.17 103.2 455.69C106.45 464.03 110.08 471.87 113.97 479.21C135.96 483.71 158.26 484.97 180.42 482.92C185.02 482.5 189.52 481.94 193.92 481.26C197.44 488.21 201.32 494.97 205.63 501.37Z" fill="#1F1826"/>
<path d="M278.14 364.93C277.35 365.5 276.54 366.07 275.72 366.64H275.71C260.76 377.12 240.69 388.81 216.06 397.82C201.3 403.22 184.91 407.67 167 410.32C164.95 403.29 163.04 396.22 161.26 389.12C177.96 386.84 193.27 382.83 207.05 377.9C231.54 369.12 251.23 357.4 265.43 347.21L268.49 351.47L278.14 364.93Z" fill="#1F1826"/>
<path d="M290.97 411.01C277.15 420.93 258.56 432.17 235.72 441.29C219.98 447.57 202.21 452.84 182.6 455.96C179.83 449.06 177.25 442.1 174.84 435.08C194.07 432.4 211.43 427.43 226.73 421.4C248.06 412.99 265.4 402.51 278.26 393.29L290.97 411.01Z" fill="#1F1826"/>
<path d="M99.65 498.31C99.06 498.18 98.48 498.03 97.89 497.88L98.36 496.05C98.78 496.81 99.22 497.56 99.65 498.31Z" fill="#1F1826"/>
<path d="M306.91 457.65C289.89 469.87 265.63 484.1 235.11 493.87H235.1C225.85 496.85 216.01 499.4 205.63 501.37C201.32 494.97 197.44 488.21 193.92 481.26C213.73 478.22 231.5 472.76 247.02 466.28C266.37 458.19 282.23 448.52 294.2 439.93L306.91 457.65Z" fill="#1F1826"/>
<path d="M543.98 420.33C538.03 441.45 526.72 460.66 512.12 477.13C509.31 480.32 506.36 483.41 503.3 486.39C496.06 493.44 488.23 499.89 479.98 505.65C450.25 526.42 415.46 538.93 380.16 547.23C354.98 553.15 326.53 557.01 299.25 554.64C294.59 554.24 289.96 553.65 285.39 552.86C267.54 549.79 250.55 543.62 235.74 533.13C226.05 526.27 217.81 517.84 210.67 508.43C208.93 506.14 207.25 503.78 205.63 501.37C201.32 494.97 197.44 488.21 193.92 481.26C190.26 474.09 186.97 466.71 183.95 459.32C183.49 458.2 183.04 457.08 182.6 455.96C179.83 449.06 177.25 442.1 174.84 435.08C172.01 426.89 169.41 418.64 167 410.32C164.95 403.29 163.04 396.22 161.26 389.12C158.12 376.64 155.35 364.07 152.85 351.44C148.34 328.69 144.73 305.75 141.44 282.86C137.19 253.25 134.79 223.31 132.95 193.46C132.75 190.12 132.55 186.78 132.37 183.44C132.05 177.8 131.77 172.15 131.51 166.5C131.21 160.03 130.95 153.55 130.72 147.08C130.56 142.68 130 122.81 129.69 110.35C129.59 106.29 134.16 103.85 137.48 106.19C146.57 112.61 155.66 119.03 164.75 125.45L173.03 131.3C187.4 141.45 201.77 151.6 216.14 161.75C222.9 136.21 229.66 110.68 236.42 85.15C237.53 80.95 238.65 76.74 239.76 72.54C241.32 66.65 242.88 60.75 244.44 54.85C245.35 51.4 249.51 50.03 252.3 52.25C256.51 55.6 260.72 58.95 264.93 62.31C268.02 64.77 271.1 67.22 274.19 69.68C292.45 84.21 310.71 98.75 328.97 113.28C336.96 94.82 344.95 76.35 352.95 57.88C354.38 54.58 355.81 51.28 357.24 47.98C362.2 36.52 367.16 25.06 372.12 13.6C373.77 9.78 379.13 9.59 381.04 13.29C387.96 26.67 395.22 39.9 402.67 53.02C404.86 56.87 407.06 60.71 409.28 64.55C431.36 102.72 454.82 140.17 476.45 178.46C481.13 186.76 485.72 195.08 490.19 203.46V203.48C495.03 212.53 499.73 221.64 504.25 230.84C509.25 241.01 514.02 251.29 518.52 261.69C522.19 270.19 525.68 278.76 528.96 287.44C529.69 289.38 530.41 291.33 531.12 293.28C534.02 301.25 536.73 309.37 539.12 317.6C540.4 321.99 541.59 326.41 542.66 330.85C543.69 335.06 544.61 339.29 545.42 343.53C550.31 369.21 551.02 395.32 543.97 420.33H543.98Z" fill="#F2A03C"/>
<path d="M543.98 420.33C538.03 441.45 526.72 460.66 512.12 477.13C509.31 480.32 506.36 483.41 503.3 486.39C496.06 493.44 488.23 499.89 479.98 505.65C450.25 526.42 415.46 538.93 380.16 547.23C354.98 553.15 326.53 557.01 299.25 554.64C294.59 554.24 289.96 553.65 285.39 552.86C267.54 549.79 250.55 543.62 235.74 533.13C226.05 526.27 217.81 517.84 210.67 508.43C208.93 506.14 207.25 503.78 205.63 501.37C201.32 494.97 197.44 488.21 193.92 481.26C190.26 474.09 186.97 466.71 183.95 459.32C183.49 458.2 183.04 457.08 182.6 455.96C179.83 449.06 177.25 442.1 174.84 435.08C172.01 426.89 169.41 418.64 167 410.32C164.95 403.29 163.04 396.22 161.26 389.12C158.12 376.64 155.35 364.07 152.85 351.44C148.34 328.69 144.73 305.75 141.44 282.86C137.19 253.25 134.79 223.31 132.95 193.46C132.75 190.12 132.55 186.78 132.37 183.44C132.05 177.8 131.77 172.15 131.51 166.5C131.21 160.03 130.95 153.55 130.72 147.08C130.56 142.68 130 122.81 129.69 110.35C129.59 106.29 134.16 103.85 137.48 106.19C146.57 112.61 155.66 119.03 164.75 125.45L173.03 131.3C187.4 141.45 201.77 151.6 216.14 161.75C222.9 136.21 229.66 110.68 236.42 85.15C237.53 80.95 238.65 76.74 239.76 72.54C241.32 66.65 242.88 60.75 244.44 54.85C245.35 51.4 249.51 50.03 252.3 52.25C256.51 55.6 260.72 58.95 264.93 62.31C268.02 64.77 271.1 67.22 274.19 69.68C292.45 84.21 310.71 98.75 328.97 113.28C336.96 94.82 344.95 76.35 352.95 57.88C354.38 54.58 355.81 51.28 357.24 47.98C362.2 36.52 367.16 25.06 372.12 13.6C373.77 9.78 379.13 9.59 381.04 13.29C387.96 26.67 395.22 39.9 402.67 53.02C404.86 56.87 407.06 60.71 409.28 64.55C431.36 102.72 454.82 140.17 476.45 178.46C481.13 186.76 485.72 195.08 490.19 203.46V203.48C495.03 212.53 499.73 221.64 504.25 230.84C509.25 241.01 514.02 251.29 518.52 261.69C522.19 270.19 525.68 278.76 528.96 287.44C529.69 289.38 530.41 291.33 531.12 293.28C534.02 301.25 536.73 309.37 539.12 317.6C540.4 321.99 541.59 326.41 542.66 330.85C543.69 335.06 544.61 339.29 545.42 343.53C550.31 369.21 551.02 395.32 543.97 420.33H543.98Z" fill="url(#paint0_radial_34_5966)"/>
<path d="M362.98 183.34C363.47 181.47 366.06 180.16 368.09 179.33C370.36 178.42 372.91 177.7 375.33 177.11C388.81 174.12 405.52 172.17 418.44 178.74C428.34 185.3 402.61 187.7 398.84 188.34C388.15 189.46 375.04 191.05 365.44 186.68C364.12 186 362.69 184.87 362.96 183.42L362.98 183.34Z" fill="#1F1826"/>
<path d="M252.15 222.78C247.02 221.98 241.31 224.33 236.21 225.76C222.95 229.92 209.83 237.56 201.45 244.2C195.04 248.49 196.05 254.6 204.08 255.16C211.07 255.38 216.98 251.14 222.88 247.62C231.43 242.43 239.46 237.58 246.77 233.19C249.73 231.4 253.7 229.09 254.51 225.55C254.81 224.07 253.66 223.1 252.29 222.81L252.15 222.78Z" fill="#1F1826"/>
<path d="M250.47 306.52C242.98 305.64 236.61 309.03 231.74 315.31C229.3 318.12 226.73 321.18 223.9 322.27C217.73 324.65 214.4 318.07 216.85 312.99C220.47 305.09 229.36 299.26 237.88 296.36C242 294.82 246.52 294.25 251.04 294.58L248.76 294.47C253.29 294.58 257.74 295.59 261.69 297.52C269.89 301.23 278.18 307.89 281.01 316.11C282.96 321.4 279.01 327.64 273.1 324.67C270.39 323.32 268.13 320.01 265.97 316.99C261.73 310.27 255.72 306.27 248.18 306.43L250.46 306.54L250.47 306.52Z" fill="#1F1826"/>
<path d="M402.9 253.64C408.17 248.26 415.27 246.9 423 248.74C426.66 249.39 430.59 250.17 433.47 249.24C439.77 247.22 438.23 240.01 433.13 237.59C425.35 233.7 414.77 234.75 406.32 237.83C402.14 239.21 398.26 241.61 394.95 244.7L396.66 243.18C393.2 246.11 390.37 249.68 388.51 253.67C384.45 261.7 382.18 272.09 385.13 280.27C386.93 285.61 393.92 287.99 396.66 281.97C397.92 279.22 397.61 275.23 397.39 271.52C396.47 263.62 398.65 256.74 404.61 252.13L402.9 253.65V253.64Z" fill="#1F1826"/>
<path d="M173.04 131.3L171.86 132.49C159.91 144.54 149.15 157.82 139.88 171.98L132.37 183.44C132.05 177.8 131.77 172.15 131.51 166.5C131.21 160.03 130.95 153.55 130.72 147.08C130.56 142.68 130 122.81 129.69 110.35C129.59 106.29 134.16 103.85 137.48 106.19C146.57 112.61 155.66 119.03 164.75 125.45L173.03 131.3H173.04Z" fill="#F2DCC2"/>
<path d="M164.76 125.45C152.35 137.96 141.2 151.71 131.51 166.5C131.21 160.03 130.95 153.55 130.72 147.08C130.56 142.68 130 122.81 129.69 110.35C129.59 106.29 134.16 103.85 137.48 106.19C146.57 112.61 155.66 119.03 164.75 125.45H164.76Z" fill="#1F1826"/>
<path d="M274.2 69.68L268.21 71.76C260.03 74.6 251.89 77.91 244.01 81.6L236.43 85.15C237.54 80.95 238.66 76.74 239.77 72.54C241.33 66.65 242.89 60.75 244.45 54.85C245.36 51.4 249.52 50.03 252.31 52.25C256.52 55.6 260.73 58.95 264.94 62.31C268.03 64.77 271.11 67.22 274.2 69.68Z" fill="#F2DCC2"/>
<path d="M264.94 62.31C256.34 65.29 247.94 68.71 239.77 72.54C241.33 66.65 242.89 60.75 244.45 54.85C245.36 51.4 249.52 50.03 252.31 52.25C256.52 55.6 260.73 58.95 264.94 62.31Z" fill="#1F1826"/>
<path d="M409.29 64.55L400.72 62.83C386.4 59.96 371.7 58.33 357.01 57.98L352.96 57.88C354.39 54.58 355.82 51.28 357.25 47.98C362.21 36.52 367.17 25.06 372.13 13.6C373.78 9.78 379.14 9.59 381.05 13.29C387.97 26.67 395.23 39.9 402.68 53.02C404.87 56.87 407.07 60.71 409.29 64.55Z" fill="#F2DCC2"/>
<path d="M402.68 53.02C387.95 50.07 372.76 48.35 357.25 47.98C362.21 36.52 367.17 25.06 372.13 13.6C373.78 9.78 379.14 9.59 381.05 13.29C387.97 26.67 395.23 39.9 402.68 53.02Z" fill="#1F1826"/>
<path d="M401.91 327.81C402.19 327.45 402.45 327.11 402.69 326.8L299.34 359.36C308.99 353.13 317.84 344.26 326.38 338.12C333.63 332.9 339.46 329.49 345.75 327.42C352.96 325.04 360.7 324.63 368.24 324.78C380.19 324.86 388.97 326.22 401.68 324.75L401.91 327.81Z" fill="#5C2849"/>
<path d="M428.62 300.8C426.66 300.96 424.28 301.77 421.73 302.75C418.84 304.04 415.77 305.11 412.63 305.87C406.79 307.27 400.7 307.6 395.01 306.25C382.9 303.8 373.88 298.57 361.11 297.61C344.69 296.39 329 300.99 316.48 311.83C307.94 318.89 302.47 328.75 295.19 336.97C294.74 337.47 294.28 337.98 293.82 338.47C287.88 345.22 278.86 349.3 270 351.07C269.49 351.2 268.98 351.33 268.49 351.47C266.44 352.04 264.61 352.65 263.25 353.46C256.47 357.51 264.18 363.88 269.1 365.34C271.35 366.05 273.55 366.47 275.71 366.64H275.72C282.63 367.19 289.07 365.17 295.19 361.84C296.17 361.3 297.13 360.74 298.08 360.15C307.43 362.57 332.09 367.59 360.41 357.81C385.21 349.25 399.79 333.86 406 326.25C408.26 326.04 410.48 325.7 412.63 325.2C419.63 323.57 425.91 320.23 430.72 313.87C433.88 309.84 436.5 300.18 428.62 300.8ZM300.15 358.82C300.66 358.48 301.15 358.14 301.66 357.79C301.95 357.59 302.24 357.39 302.53 357.18C302.82 356.97 303.12 356.77 303.4 356.55C304.27 355.92 305.13 355.27 305.98 354.62C306.41 354.29 306.84 353.95 307.26 353.62C308.11 352.95 308.96 352.27 309.8 351.59C309.83 351.57 309.86 351.54 309.89 351.52C310.7 350.86 311.5 350.19 312.3 349.52C313.13 348.83 313.95 348.14 314.77 347.45C315.59 346.76 316.41 346.08 317.22 345.4C318.03 344.72 318.84 344.04 319.64 343.38C320.04 343.05 320.44 342.72 320.84 342.4C321.64 341.75 322.44 341.11 323.23 340.49C324.28 339.67 325.34 338.87 326.38 338.12C333.63 332.9 339.46 329.49 345.75 327.42C352.96 325.04 360.7 324.63 368.24 324.78C368.72 324.78 369.2 324.79 369.69 324.8C379.6 325.03 390.99 326.84 401.68 326.51L299.93 358.97C300 358.92 300.08 358.87 300.15 358.82Z" fill="#027F8C"/>
<path style="mix-blend-mode:multiply" opacity="0.59" d="M428.62 300.8C426.66 300.96 424.28 301.77 421.73 302.75C418.84 304.04 415.77 305.11 412.63 305.87C406.79 307.27 400.7 307.6 395.01 306.25C382.9 303.8 373.88 298.57 361.11 297.61C344.69 296.39 329 300.99 316.48 311.83C307.94 318.89 302.47 328.75 295.19 336.97C294.74 337.47 294.28 337.98 293.82 338.47C287.88 345.22 278.86 349.3 270 351.07C269.49 351.2 268.98 351.33 268.49 351.47C266.44 352.04 264.61 352.65 263.25 353.46C256.47 357.51 264.18 363.88 269.1 365.34C271.35 366.05 273.55 366.47 275.71 366.64H275.72C282.63 367.19 289.07 365.17 295.19 361.84C296.17 361.3 297.13 360.74 298.08 360.15C307.43 362.57 332.09 367.59 360.41 357.81C385.21 349.25 399.79 333.86 406 326.25C408.26 326.04 410.48 325.7 412.63 325.2C419.63 323.57 425.91 320.23 430.72 313.87C433.88 309.84 436.5 300.18 428.62 300.8ZM300.15 358.82C300.66 358.48 301.15 358.14 301.66 357.79C301.95 357.59 302.24 357.39 302.53 357.18C302.82 356.97 303.12 356.77 303.4 356.55C304.27 355.92 305.13 355.27 305.98 354.62C306.41 354.29 306.84 353.95 307.26 353.62C308.11 352.95 308.96 352.27 309.8 351.59C309.83 351.57 309.86 351.54 309.89 351.52C310.7 350.86 311.5 350.19 312.3 349.52C313.13 348.83 313.95 348.14 314.77 347.45C315.59 346.76 316.41 346.08 317.22 345.4C318.03 344.72 318.84 344.04 319.64 343.38C320.04 343.05 320.44 342.72 320.84 342.4C321.64 341.75 322.44 341.11 323.23 340.49C324.28 339.67 325.34 338.87 326.38 338.12C333.63 332.9 339.46 329.49 345.75 327.42C352.96 325.04 360.7 324.63 368.24 324.78C368.72 324.78 369.2 324.79 369.69 324.8C379.6 325.03 390.99 326.84 401.68 326.51L299.93 358.97C300 358.92 300.08 358.87 300.15 358.82Z" fill="url(#paint1_radial_34_5966)"/>
<path d="M428.62 300.8C426.66 300.96 424.28 301.77 421.73 302.75C418.84 304.04 415.77 305.11 412.63 305.87C406.79 307.27 400.7 307.6 395.01 306.25C382.9 303.8 373.88 298.57 361.11 297.61C344.69 296.39 329 300.99 316.48 311.83C307.94 318.89 302.47 328.75 295.19 336.97C294.74 337.47 294.28 337.98 293.82 338.47C287.88 345.22 278.86 349.3 270 351.07C269.49 351.2 268.98 351.33 268.49 351.47C266.44 352.04 264.61 352.65 263.25 353.46C256.47 357.51 264.18 363.88 269.1 365.34C271.35 366.05 273.55 366.47 275.71 366.64H275.72C282.63 367.19 289.07 365.17 295.19 361.84C296.17 361.3 297.13 360.74 298.08 360.15C307.43 362.57 332.09 367.59 360.41 357.81C385.21 349.25 399.79 333.86 406 326.25C408.26 326.04 410.48 325.7 412.63 325.2C419.63 323.57 425.91 320.23 430.72 313.87C433.88 309.84 436.5 300.18 428.62 300.8ZM300.15 358.82C300.66 358.48 301.15 358.14 301.66 357.79C301.95 357.59 302.24 357.39 302.53 357.18C302.82 356.97 303.12 356.77 303.4 356.55C304.27 355.92 305.13 355.27 305.98 354.62C306.41 354.29 306.84 353.95 307.26 353.62C308.11 352.95 308.96 352.27 309.8 351.59C309.83 351.57 309.86 351.54 309.89 351.52C310.7 350.86 311.5 350.19 312.3 349.52C313.13 348.83 313.95 348.14 314.77 347.45C315.59 346.76 316.41 346.08 317.22 345.4C318.03 344.72 318.84 344.04 319.64 343.38C320.04 343.05 320.44 342.72 320.84 342.4C321.64 341.75 322.44 341.11 323.23 340.49C324.28 339.67 325.34 338.87 326.38 338.12C333.63 332.9 339.46 329.49 345.75 327.42C352.96 325.04 360.7 324.63 368.24 324.78C368.72 324.78 369.2 324.79 369.69 324.8C379.6 325.03 390.99 326.84 401.68 326.51L299.93 358.97C300 358.92 300.08 358.87 300.15 358.82Z" fill="url(#paint2_radial_34_5966)"/>
<path d="M331.41 314.13C333.387 314.13 334.99 312.527 334.99 310.55C334.99 308.573 333.387 306.97 331.41 306.97C329.433 306.97 327.83 308.573 327.83 310.55C327.83 312.527 329.433 314.13 331.41 314.13Z" fill="#84CED1"/>
<path d="M339.7 311.44C338.58 311.44 337.48 310.9 336.8 309.91C335.71 308.31 336.13 306.13 337.72 305.05C341.08 302.77 344.6 302.44 347.71 302.16C349.13 302.03 350.47 301.91 351.72 301.61C353.6 301.17 355.49 302.34 355.93 304.22C356.37 306.1 355.2 307.99 353.32 308.43C351.59 308.83 349.94 308.99 348.35 309.13C345.76 309.37 343.52 309.57 341.65 310.84C341.05 311.25 340.36 311.45 339.68 311.45L339.7 311.44Z" fill="#84CED1"/>
</g>
<defs>
<radialGradient id="paint0_radial_34_5966" cx="0" cy="0" r="1" gradientUnits="userSpaceOnUse" gradientTransform="translate(337.73 313.4) scale(206.79 206.79)">
<stop stop-color="#F2A03C"/>
<stop offset="0.41" stop-color="#F09B37"/>
<stop offset="0.88" stop-color="#ED8D29"/>
<stop offset="1" stop-color="#EC8925"/>
</radialGradient>
<radialGradient id="paint1_radial_34_5966" cx="0" cy="0" r="1" gradientUnits="userSpaceOnUse" gradientTransform="translate(347.2 332.08) scale(65.97 65.97)">
<stop stop-color="white" stop-opacity="0"/>
<stop offset="0.68" stop-color="#A57EAD" stop-opacity="0.71"/>
<stop offset="1" stop-color="#80498B"/>
</radialGradient>
<radialGradient id="paint2_radial_34_5966" cx="0" cy="0" r="1" gradientUnits="userSpaceOnUse" gradientTransform="translate(347.2 332.08) scale(65.97 65.97)">
<stop stop-color="#027F8C"/>
<stop offset="0.73" stop-color="#236584"/>
</radialGradient>
<clipPath id="clip0_34_5966">
<rect width="669.8" height="649.7" fill="white"/>
</clipPath>
</defs>
</svg>
