<svg width="88" height="88" viewBox="0 0 88 88" fill="none" xmlns="http://www.w3.org/2000/svg">
<path d="M64.1667 23.8333H64.2033M25.6667 7.33325H62.3333C72.4585 7.33325 80.6667 15.5414 80.6667 25.6666V62.3333C80.6667 72.4585 72.4585 80.6666 62.3333 80.6666H25.6667C15.5414 80.6666 7.33333 72.4585 7.33333 62.3333V25.6666C7.33333 15.5414 15.5414 7.33325 25.6667 7.33325ZM58.6667 41.6899C59.1192 44.7415 58.5979 47.858 57.1771 50.5963C55.7563 53.3346 53.5082 55.5551 50.7526 56.9421C47.9971 58.329 44.8743 58.8118 41.8285 58.3217C38.7828 57.8316 35.9691 56.3936 33.7877 54.2122C31.6064 52.0308 30.1683 49.2171 29.6782 46.1714C29.1881 43.1256 29.6709 40.0029 31.0579 37.2473C32.4448 34.4917 34.6653 32.2436 37.4036 30.8228C40.1419 29.402 43.2584 28.8807 46.31 29.3333C49.4227 29.7948 52.3044 31.2453 54.5295 33.4704C56.7546 35.6955 58.2051 38.5772 58.6667 41.6899Z" stroke="#1E1E1E" stroke-width="7.99333" stroke-linecap="round" stroke-linejoin="round"/>
</svg>
